<?xml version="1.0" encoding="utf-8"?>
<!-- Generator: Adobe Illustrator 27.6.1, SVG Export Plug-In . SVG Version: 6.00 Build 0)  -->
<svg version="1.1" id="Livello_1" xmlns="http://www.w3.org/2000/svg" xmlns:xlink="http://www.w3.org/1999/xlink" x="0px" y="0px"
	 viewBox="0 0 1768.6 540.9" style="enable-background:new 0 0 1768.6 540.9;" xml:space="preserve">
<style type="text/css">
	.st0{fill:#6CC04A;}
</style>
<g>
	<path class="st0" d="M297.94,102.65V52.52c-12.98-5-26.46-8.91-40.12-11.45v46.65c-14.5-3.56-29.43-5.34-44.36-5.34
		c-102.62,0-186.16,83.54-186.16,186.16c0,69.46,38.34,130.19,94.91,162.16v56.32c12.98,5.43,26.38,9.75,40.12,12.81v-52.24
		c16.62,4.75,33.84,7.21,51.14,7.21c28.67,0,56.91-6.62,82.52-19.34l1.95-0.42v-0.59c60.3-30.96,101.69-93.72,101.69-165.98
		S358.24,133.52,297.94,102.65z M99.22,177.62c6.79-8.48,14.5-16.2,22.98-22.98v227.64C59.36,332.15,49.1,240.55,99.22,177.62z
		 M162.41,405.09V210.87c17.3,40.03,62.85,145.79,85.92,199.31C219.83,417.39,189.8,415.61,162.41,405.09z M257.82,330.88
		c-17.56-40.79-64.46-149.44-87.1-202.02c13.82-4.24,28.24-6.45,42.75-6.45l0,0c15.01,0,30.02,2.37,44.36,6.95L257.82,330.88
		L257.82,330.88z M297.94,387.36V149.55c37.15,26.46,61.57,69.89,61.57,118.91C359.51,317.56,335.09,360.9,297.94,387.36z"/>
	<path class="st0" d="M564.42,179.4h-65.39v182.18h65.39c59.71,0,89.65-45.37,89.65-91C654.07,225.03,624.13,179.4,564.42,179.4z
		 M564.42,335.29h-39.1V205.78h39.1c42.24,0,63.61,32.57,63.61,64.88S606.66,335.29,564.42,335.29z"/>
	<polygon class="st0" points="694.01,335.29 694.01,283.64 776.62,283.64 776.62,257.09 694.01,257.09 694.01,205.78 778.4,205.78 
		778.4,179.4 667.38,179.4 667.38,361.58 778.74,361.58 778.74,335.29 	"/>
	<polygon class="st0" points="972.79,307.64 883.91,179.15 863.55,178.89 863.55,361.58 889.93,361.58 889.93,234.19 977.97,361.58 
		998.83,361.58 998.83,179.15 972.79,179.15 	"/>
	<path class="st0" d="M1168.29,203.24c-36.38-35.71-94.74-35.11-130.44,1.19c-16.45,16.96-27.14,40.12-27.14,65.9
		s10.69,49.02,27.14,65.9c0.42,0.42,0.85,0.85,1.27,1.27c36.38,35.62,94.74,35.03,130.36-1.27c16.45-16.96,27.14-40.12,27.14-65.9
		s-10.69-49.02-27.14-65.9C1169.05,204.08,1168.63,203.66,1168.29,203.24z M1103.49,337.41c-17.56-0.08-34.35-7.21-46.65-19.76l0,0
		c-26.04-26.04-26.04-68.27,0-94.31c12.21-12.64,29.09-19.76,46.65-19.76c17.73,0.08,34.69,7.21,47.16,19.76
		c12.21,12.38,19.08,29.01,19.25,46.48C1170.32,306.71,1140.55,337.07,1103.49,337.41z"/>
	<path class="st0" d="M1338,237.33c0-28.92-19.85-58.1-59.45-58.1h-66.41v182.43h26.04V205.78h40.37
		c22.14,0,33.08,15.86,33.08,31.55c0,15.86-10.94,31.8-33.08,31.8h-30.79v12.55l66.49,79.98h34.18l-57.59-68.53
		C1322.14,287.62,1338,263.11,1338,237.33z"/>
	<path class="st0" d="M1454.02,176.86h-19.25l-73.19,184.81h28.41c5.77-15.1,14.84-36.98,21.88-53.69h65.39l21.88,53.69h28.16
		L1454.02,176.86z M1421.71,283.13l22.98-64.37l22.39,64.37H1421.71z"/>
</g>
</svg>
